<svg width="46" height="46" viewBox="0 0 46 46" fill="none" xmlns="http://www.w3.org/2000/svg">
<g clip-path="url(#clip0_106_47)">
<path d="M21.0654 0.96055L0.961492 21.0479C-0.119325 22.1278 -0.119325 23.8721 0.961492 24.952L21.0654 45.0393C22.1462 46.1193 23.8919 46.1193 24.9727 45.0393L33.402 36.617C34.3699 35.6499 34.3699 34.0818 33.402 33.1146C32.434 32.1475 30.8647 32.1475 29.8967 33.1146L23.5065 39.4995C23.2375 39.7683 22.8292 39.7683 22.5602 39.4995L6.50586 23.4584C6.23684 23.1896 6.23684 22.7816 6.50586 22.5128L22.5602 6.47166C22.8292 6.20287 23.2375 6.20287 23.5065 6.47166L29.8967 12.8566C30.8647 13.8237 32.434 13.8237 33.402 12.8566C34.3699 11.8894 34.3699 10.3213 33.402 9.35419L24.9736 0.93277C23.8884 -0.123789 22.142 -0.115236 21.0654 0.96055Z" fill="url(#paint0_linear_106_47)"/>
<path d="M21.0654 0.96055L0.961492 21.0479C-0.119325 22.1278 -0.119325 23.8721 0.961492 24.952L21.0654 45.0393C22.1462 46.1193 23.8919 46.1193 24.9727 45.0393L33.402 36.617C34.3699 35.6499 34.3699 34.0818 33.402 33.1146C32.434 32.1475 30.8647 32.1475 29.8967 33.1146L23.5065 39.4995C23.2375 39.7683 22.8292 39.7683 22.5602 39.4995L6.50586 23.4584C6.23684 23.1896 6.23684 22.7816 6.50586 22.5128L22.5602 6.47166C23.2301 5.8942 24.323 4.72457 25.9279 4.45101C27.1207 4.24771 28.4247 4.69517 29.84 5.7934C28.8938 4.84799 27.2717 3.22778 24.9736 0.93277C23.8884 -0.123789 22.142 -0.115236 21.0654 0.96055Z" fill="url(#paint1_linear_106_47)"/>
<path d="M35.3479 31.2466C36.3158 32.2138 37.8852 32.2138 38.8531 31.2466L45.071 25.0339C46.1518 23.9539 46.1518 22.2097 45.0711 21.1299L38.799 14.8852C37.8288 13.9192 36.2589 13.9206 35.2904 14.8883C34.3225 15.8555 34.3225 17.4236 35.2904 18.3907L39.5266 22.6234C39.7956 22.8922 39.7956 23.3001 39.5266 23.5689L35.3479 27.7442C34.3799 28.7114 34.3799 30.2794 35.3479 31.2466Z" fill="url(#paint2_linear_106_47)"/>
<path d="M23.1195 28.5239C26.1173 28.5239 28.5475 26.0957 28.5475 23.1003C28.5475 20.105 26.1173 17.6768 23.1195 17.6768C20.1216 17.6768 17.6914 20.105 17.6914 23.1003C17.6914 26.0957 20.1216 28.5239 23.1195 28.5239Z" fill="url(#paint3_linear_106_47)"/>
</g>
<defs>
<linearGradient id="paint0_linear_106_47" x1="2110.2" y1="0.147086" x2="4020.66" y2="1166.83" gradientUnits="userSpaceOnUse">
<stop stop-color="#4285EB"/>
<stop offset="1" stop-color="#2EC7FF"/>
</linearGradient>
<linearGradient id="paint1_linear_106_47" x1="2366.45" y1="0.146947" x2="1422.86" y2="4876.86" gradientUnits="userSpaceOnUse">
<stop stop-color="#29CDFF"/>
<stop offset="0.378601" stop-color="#148EFF"/>
<stop offset="1" stop-color="#0A60FF"/>
</linearGradient>
<linearGradient id="paint2_linear_106_47" x1="823.264" y1="-216.916" x2="-404.488" y2="1703.19" gradientUnits="userSpaceOnUse">
<stop stop-color="#FA816E"/>
<stop offset="0.414726" stop-color="#F74A5C"/>
<stop offset="1" stop-color="#F51D2C"/>
</linearGradient>
<linearGradient id="paint3_linear_106_47" x1="757.295" y1="-369.465" x2="348.785" y2="1264.64" gradientUnits="userSpaceOnUse">
<stop stop-color="#FA8E7D"/>
<stop offset="0.512635" stop-color="#F74A5C"/>
<stop offset="1" stop-color="#F51D2C"/>
</linearGradient>
<clipPath id="clip0_106_47">
<rect width="46" height="46" fill="white"/>
</clipPath>
</defs>
</svg>
